<?xml version="1.0" encoding="UTF-8" standalone="no"?>
<!-- Uploaded to: SVG Repo, www.svgrepo.com, Generator: SVG Repo Mixer Tools -->

<svg
   fill="#000000"
   height="800px"
   width="800px"
   version="1.1"
   id="Capa_1"
   viewBox="0 0 482.568 482.568"
   xml:space="preserve"
   sodipodi:docname="seticon.svg"
   inkscape:version="1.2.2 (732a01da63, 2022-12-09)"
   xmlns:inkscape="http://www.inkscape.org/namespaces/inkscape"
   xmlns:sodipodi="http://sodipodi.sourceforge.net/DTD/sodipodi-0.dtd"
   xmlns="http://www.w3.org/2000/svg"
   xmlns:svg="http://www.w3.org/2000/svg"><defs
   id="defs30" /><sodipodi:namedview
   id="namedview28"
   pagecolor="#ffffff"
   bordercolor="#000000"
   borderopacity="0.25"
   inkscape:showpageshadow="2"
   inkscape:pageopacity="0.0"
   inkscape:pagecheckerboard="0"
   inkscape:deskcolor="#d1d1d1"
   showgrid="false"
   inkscape:zoom="1.005"
   inkscape:cx="400"
   inkscape:cy="400"
   inkscape:window-width="1920"
   inkscape:window-height="991"
   inkscape:window-x="-9"
   inkscape:window-y="-9"
   inkscape:window-maximized="1"
   inkscape:current-layer="Capa_1" />
<g
   id="g25">
	<g
   id="g23">
		<path
   d="M116.993,203.218c13.4-1.8,26.8,2.8,36.3,12.3l24,24l22.7-22.6l-32.8-32.7c-5.1-5.1-5.1-13.4,0-18.5s13.4-5.1,18.5,0    l32.8,32.8l22.7-22.6l-24.1-24.1c-9.5-9.5-14.1-23-12.3-36.3c4-30.4-5.7-62.2-29-85.6c-23.8-23.8-56.4-33.4-87.3-28.8    c-4.9,0.7-6.9,6.8-3.4,10.3l30.9,30.9c14.7,14.7,14.7,38.5,0,53.1l-19,19c-14.7,14.7-38.5,14.7-53.1,0l-31-30.9    c-3.5-3.5-9.5-1.5-10.3,3.4c-4.6,30.9,5,63.5,28.8,87.3C54.793,197.518,86.593,207.218,116.993,203.218z"
   id="path17" />
		<path
   d="M309.193,243.918l-22.7,22.6l134.8,134.8c5.1,5.1,5.1,13.4,0,18.5s-13.4,5.1-18.5,0l-134.8-134.8l-22.7,22.6l138.9,138.9    c17.6,17.6,46.1,17.5,63.7-0.1s17.6-46.1,0.1-63.7L309.193,243.918z"
   id="path19" />
		<path
   d="M361.293,153.918h59.9l59.9-119.7l-29.9-29.9l-119.8,59.8v59.9l-162.8,162.3l-29.3-29.2l-118,118    c-24.6,24.6-24.6,64.4,0,89s64.4,24.6,89,0l118-118l-29.9-29.9L361.293,153.918z"
   id="path21" />
	</g>
</g>
<path
   style="fill:#ffffff;stroke-width:0.995025"
   d="M 96.517413,798.87126 C 76.53076,796.31377 54.212474,785.85233 38.600498,771.72337 25.38645,759.76457 13.237967,739.16915 8.3255338,720.39801 5.0235312,707.78057 4.60695,687.36927 7.3913742,674.62687 10.948545,658.34812 19.350044,641.29236 30.056588,628.61454 33.179752,624.91635 79.633691,578.01209 133.28756,524.38287 l 97.5525,-97.50768 24.3795,24.36427 24.3795,24.36427 109.70296,-109.45613 c 60.33663,-60.20087 121.23281,-120.85727 135.32485,-134.792 l 25.62189,-25.33586 V 156.24137 106.463 L 649.09001,57.045362 747.93125,7.6277254 772.39058,32.08704 796.84989,56.546354 747.43225,155.3876 698.01462,254.22886 h -49.71628 -49.71627 l -135.11782,135.06141 -135.11782,135.06141 24.62809,24.64289 24.6281,24.64288 -99.99534,100.05813 c -54.99744,55.03198 -102.90579,102.27423 -106.463,104.98279 -9.20762,7.01093 -24.62012,14.40432 -36.31841,17.42195 -9.82705,2.53494 -29.20113,3.93632 -38.308457,2.77094 z"
   id="path274"
   transform="scale(0.60321)" /><path
   style="fill:#ffffff;stroke-width:0.995025"
   d="m 270.14925,372.86411 c -25.77838,-25.49134 -29.47106,-28.2872 -44.01869,-33.32826 -7.64345,-2.64862 -10.12759,-3.03156 -20.16041,-3.1079 -6.29353,-0.0479 -17.93532,0.30288 -25.87065,0.77948 -29.58665,1.777 -55.13156,-3.56016 -83.084575,-17.35906 C 45.181488,294.26099 11.298315,246.06479 4.0326904,187.58829 2.1737322,172.6267 3.3139646,145.75914 6.0226733,140.69788 c 1.5191702,-2.8386 6.6141057,-5.10068 9.8751547,-4.38443 1.931908,0.42432 12.104392,9.74681 32.369848,29.6651 16.253927,15.97548 32.080347,30.73716 35.169823,32.80373 11.873012,7.94195 31.111741,11.41989 45.915731,8.30055 4.10448,-0.86485 11.26866,-3.44299 15.9204,-5.7292 7.82566,-3.84611 10.04574,-5.72507 29.70789,-25.14325 11.6876,-11.54257 23.04948,-23.61889 25.24862,-26.83625 13.37931,-19.57404 14.18975,-46.36166 2.03563,-67.284578 -2.79733,-4.815517 -11.28042,-14.092942 -33.20882,-36.318408 -16.19848,-16.41791 -29.75571,-30.702666 -30.12718,-31.743903 -0.96632,-2.708587 1.08123,-8.1373437 3.72166,-9.8674257 2.85955,-1.8736419 17.23326,-3.65586843 29.51397,-3.65949988 17.47144,-0.005166 34.61611,2.89504728 52.80901,8.93323658 57.73946,19.163615 99.75091,67.123976 112.45371,128.377398 2.2872,11.02898 2.82803,28.87591 1.82426,60.199 -0.48138,15.02135 0.29528,20.05465 4.75172,30.79444 4.52829,10.91297 9.32169,16.84597 32.21271,39.87102 l 22.77093,22.90426 -18.40117,18.38101 -18.40117,18.38101 -28.60514,-28.56287 c -19.02718,-18.99908 -29.84381,-29.07463 -32.30452,-30.09125 -7.71892,-3.189 -18.05658,-1.36307 -24.03803,4.24581 -6.14685,5.76398 -8.39328,16.79287 -5.06258,24.8548 1.01663,2.46073 11.09311,13.27828 30.09463,32.30791 l 28.56626,28.60852 -18.40308,18.38708 -18.40309,18.3871 z"
   id="path276"
   transform="scale(0.60321)" /><path
   style="fill:#ffffff;stroke-width:0.995025"
   d="m 680.0995,761.04804 c -12.5002,-2.01131 -25.55211,-7.47203 -34.82587,-14.57059 -3.28358,-2.5134 -58.1317,-56.75833 -121.88469,-120.54427 l -115.91456,-115.97444 18.39203,-18.41221 18.39204,-18.41222 113.94043,113.84063 113.94042,113.84061 5.59395,1.21458 c 8.46936,1.83889 14.84597,0.0127 20.8216,-5.96285 7.05861,-7.05862 8.6472,-16.54774 4.24991,-25.38613 -0.82623,-1.6607 -52.28229,-53.84299 -114.34679,-115.96064 l -112.84454,-112.94119 18.4231,-18.4021 18.4231,-18.4021 118.27224,118.40796 c 128.23716,128.38433 123.24626,122.97361 128.97877,139.82789 4.0426,11.88575 5.07878,23.5981 3.11568,35.21766 -4.96711,29.4 -25.37045,52.37513 -53.53414,60.28197 -7.1791,2.0155 -23.21408,3.29941 -29.19268,2.33744 z"
   id="path278"
   transform="scale(0.60321)" /></svg>
